<?xml version="1.0" encoding="UTF-8" standalone="no"?>
<!-- Created with Inkscape (http://www.inkscape.org/) -->

<svg
   width="24"
   height="24"
   viewBox="0 0 6.3499999 6.3500002"
   version="1.1"
   id="svg8"
   inkscape:version="1.2.2 (1:1.2.2+202305151915+b0a8486541)"
   sodipodi:docname="github.svg"
   xmlns:inkscape="http://www.inkscape.org/namespaces/inkscape"
   xmlns:sodipodi="http://sodipodi.sourceforge.net/DTD/sodipodi-0.dtd"
   xmlns="http://www.w3.org/2000/svg"
   xmlns:svg="http://www.w3.org/2000/svg"
   xmlns:rdf="http://www.w3.org/1999/02/22-rdf-syntax-ns#"
   xmlns:cc="http://creativecommons.org/ns#"
   xmlns:dc="http://purl.org/dc/elements/1.1/">
  <defs
     id="defs2" />
  <sodipodi:namedview
     id="base"
     pagecolor="#ffffff"
     bordercolor="#666666"
     borderopacity="1.0"
     inkscape:pageopacity="0.0"
     inkscape:pageshadow="2"
     inkscape:zoom="37.1"
     inkscape:cx="13.274933"
     inkscape:cy="13.355795"
     inkscape:document-units="mm"
     inkscape:current-layer="layer1"
     showgrid="false"
     inkscape:window-width="1920"
     inkscape:window-height="1009"
     inkscape:window-x="0"
     inkscape:window-y="30"
     inkscape:window-maximized="1"
     units="px"
     showborder="true"
     inkscape:showpageshadow="false"
     borderlayer="true"
     inkscape:pagecheckerboard="0"
     inkscape:deskcolor="#d1d1d1" />
  <metadata
     id="metadata5">
    <rdf:RDF>
      <cc:Work
         rdf:about="">
        <dc:format>image/svg+xml</dc:format>
        <dc:type
           rdf:resource="http://purl.org/dc/dcmitype/StillImage" />
      </cc:Work>
    </rdf:RDF>
  </metadata>
  <g
     inkscape:label="Layer 1"
     inkscape:groupmode="layer"
     id="layer1"
     transform="translate(0,-290.64998)">
    <path
       fill-rule="evenodd"
       d="m 3.1749978,290.91456 c -1.6077378,0 -2.91041275,1.33558 -2.91041275,2.98394 0,1.31809 0.83371205,2.43707 1.99048725,2.83143 0.1458999,0.0272 0.1989543,-0.0641 0.1989543,-0.14376 0,-0.0709 -0.00284,-0.25838 -0.00379,-0.50704 -0.8100259,0.17971 -0.9805578,-0.40018 -0.9805578,-0.40018 -0.1326358,-0.34483 -0.3230633,-0.4371 -0.3230633,-0.4371 -0.26432465,-0.18456 0.019896,-0.18066 0.019896,-0.18066 0.291799,0.0213 0.4452781,0.30693 0.4452781,0.30693 0.2595876,0.45653 0.6811805,0.32442 0.8469755,0.24866 0.026528,-0.19329 0.1023199,-0.32442 0.1847431,-0.39922 -0.6461269,-0.0748 -1.3254127,-0.33121 -1.3254127,-1.47448 0,-0.32637 0.1136878,-0.59251 0.2993784,-0.80135 -0.029369,-0.0748 -0.1297932,-0.37882 0.028423,-0.78968 0,0 0.2444292,-0.0797 0.800553,0.30596 0.2321129,-0.066 0.4812793,-0.0991 0.7285505,-0.10007 0.2472714,9.8e-4 0.4964377,0.034 0.7285507,0.10007 0.5561238,-0.38562 0.7996055,-0.30596 0.7996055,-0.30596 0.1591632,0.41086 0.059687,0.71489 0.029369,0.78968 0.1866378,0.20884 0.2984311,0.47498 0.2984311,0.80135 0,1.14618 -0.6802334,1.39775 -1.3282549,1.47254 0.1042145,0.0913 0.1970592,0.27392 0.1970592,0.55172 0,0.39921 -0.00284,0.72073 -0.00284,0.81883 0,0.0797 0.052107,0.1729 0.1999012,0.14376 1.1558285,-0.39533 1.9885928,-1.51334 1.9885928,-2.83143 0,-1.64836 -1.3026748,-2.98394 -2.9104126,-2.98394 z"
       id="path807"
       style="stroke-width:0.245579;fill:#ffffff" />
  </g>
</svg>
