<?xml version="1.0" encoding="UTF-8" standalone="no"?>
<!-- Created with Inkscape (http://www.inkscape.org/) -->

<svg
   width="24"
   height="24"
   viewBox="0 0 6.3499999 6.3500002"
   version="1.1"
   id="svg8"
   inkscape:version="1.2.2 (1:1.2.2+202305151915+b0a8486541)"
   sodipodi:docname="instagram.svg"
   xmlns:inkscape="http://www.inkscape.org/namespaces/inkscape"
   xmlns:sodipodi="http://sodipodi.sourceforge.net/DTD/sodipodi-0.dtd"
   xmlns="http://www.w3.org/2000/svg"
   xmlns:svg="http://www.w3.org/2000/svg"
   xmlns:rdf="http://www.w3.org/1999/02/22-rdf-syntax-ns#"
   xmlns:cc="http://creativecommons.org/ns#"
   xmlns:dc="http://purl.org/dc/elements/1.1/">
  <defs
     id="defs2" />
  <sodipodi:namedview
     id="base"
     pagecolor="#ffffff"
     bordercolor="#666666"
     borderopacity="1.0"
     inkscape:pageopacity="0.0"
     inkscape:pageshadow="2"
     inkscape:zoom="37.1"
     inkscape:cx="9.4474394"
     inkscape:cy="11.226415"
     inkscape:document-units="mm"
     inkscape:current-layer="layer1"
     showgrid="false"
     inkscape:window-width="1920"
     inkscape:window-height="1009"
     inkscape:window-x="0"
     inkscape:window-y="30"
     inkscape:window-maximized="1"
     units="px"
     showborder="true"
     inkscape:showpageshadow="false"
     borderlayer="true"
     inkscape:pagecheckerboard="0"
     inkscape:deskcolor="#d1d1d1" />
  <metadata
     id="metadata5">
    <rdf:RDF>
      <cc:Work
         rdf:about="">
        <dc:format>image/svg+xml</dc:format>
        <dc:type
           rdf:resource="http://purl.org/dc/dcmitype/StillImage" />
      </cc:Work>
    </rdf:RDF>
  </metadata>
  <g
     inkscape:label="Layer 1"
     inkscape:groupmode="layer"
     id="layer1"
     transform="translate(0,-290.64998)">
    <path
       id="path341"
       style="fill:#ffffff;stroke-width:1.85946;stroke-linecap:round;stroke-linejoin:round;stroke-miterlimit:5.8"
       d="M 3.1166056 290.91508 A 2.9104166 2.9104166 0 0 0 1.6200562 291.36467 A 2.9104166 2.9104166 0 0 0 0.62476807 295.22696 A 2.9104166 2.9104166 0 0 0 4.4193685 296.45583 A 2.9104166 2.9104166 0 0 0 5.8771606 292.74339 L 5.5360962 292.12276 A 2.9104166 2.9104166 0 0 0 3.1166056 290.91508 z M 2.3936523 291.98427 C 2.4029709 291.98403 2.4126996 291.98427 2.4220744 291.98427 L 3.9279256 291.98427 C 4.527911 291.98427 5.0157145 292.47207 5.0157145 293.07205 L 5.0157145 294.57791 C 5.0157145 295.17789 4.527911 295.66569 3.9279256 295.66569 L 2.4220744 295.66569 C 1.8220889 295.66569 1.3342855 295.17789 1.3342855 294.57791 L 1.3342855 293.07205 C 1.3342855 292.48145 1.8065812 291.99918 2.3936523 291.98427 z M 4.2622721 292.56924 A 0.18470275 0.18470275 0 0 0 4.1480672 292.59715 A 0.18470275 0.18470275 0 0 0 4.085022 292.84209 A 0.18470275 0.18470275 0 0 0 4.3258341 292.92013 A 0.18470275 0.18470275 0 0 0 4.418335 292.68448 L 4.3966309 292.64521 A 0.18470275 0.18470275 0 0 0 4.2622721 292.56924 z M 3.1512288 292.90462 C 2.6542384 292.91724 2.2546427 293.32498 2.2546427 293.82498 C 2.2546427 294.33292 2.6670623 294.74534 3.175 294.74534 C 3.6829376 294.74534 4.0953573 294.33292 4.0953573 293.82498 C 4.0953573 293.31704 3.6829376 292.90462 3.175 292.90462 C 3.1670635 292.90462 3.1591176 292.90442 3.1512288 292.90462 z M 3.1522624 293.17851 C 3.3680752 293.17082 3.5732194 293.27154 3.6995158 293.44671 L 3.7749634 293.58468 C 3.9019448 293.9019 3.7602992 294.26323 3.4514689 294.40944 C 3.1424931 294.55557 2.7733274 294.43608 2.6086263 294.13659 C 2.4439453 293.83712 2.5404411 293.46091 2.8292847 293.27824 C 2.9260971 293.21704 3.0377877 293.18251 3.1522624 293.17851 z " />
  </g>
</svg>
