<?xml version="1.0" encoding="UTF-8" standalone="no"?>
<!-- Created with Inkscape (http://www.inkscape.org/) -->

<svg
   width="24"
   height="24"
   viewBox="0 0 6.3499999 6.3500002"
   version="1.1"
   id="svg8"
   inkscape:version="1.2.2 (1:1.2.2+202305151915+b0a8486541)"
   sodipodi:docname="linkedin.svg"
   xmlns:inkscape="http://www.inkscape.org/namespaces/inkscape"
   xmlns:sodipodi="http://sodipodi.sourceforge.net/DTD/sodipodi-0.dtd"
   xmlns="http://www.w3.org/2000/svg"
   xmlns:svg="http://www.w3.org/2000/svg"
   xmlns:rdf="http://www.w3.org/1999/02/22-rdf-syntax-ns#"
   xmlns:cc="http://creativecommons.org/ns#"
   xmlns:dc="http://purl.org/dc/elements/1.1/">
  <defs
     id="defs2" />
  <sodipodi:namedview
     id="base"
     pagecolor="#ffffff"
     bordercolor="#666666"
     borderopacity="1.0"
     inkscape:pageopacity="0.0"
     inkscape:pageshadow="2"
     inkscape:zoom="37.1"
     inkscape:cx="12.951482"
     inkscape:cy="11.226415"
     inkscape:document-units="mm"
     inkscape:current-layer="layer1"
     showgrid="false"
     inkscape:window-width="1920"
     inkscape:window-height="1009"
     inkscape:window-x="0"
     inkscape:window-y="30"
     inkscape:window-maximized="1"
     units="px"
     showborder="true"
     inkscape:showpageshadow="false"
     borderlayer="true"
     inkscape:pagecheckerboard="0"
     inkscape:deskcolor="#d1d1d1" />
  <metadata
     id="metadata5">
    <rdf:RDF>
      <cc:Work
         rdf:about="">
        <dc:format>image/svg+xml</dc:format>
        <dc:type
           rdf:resource="http://purl.org/dc/dcmitype/StillImage" />
      </cc:Work>
    </rdf:RDF>
  </metadata>
  <g
     inkscape:label="Layer 1"
     inkscape:groupmode="layer"
     id="layer1"
     transform="translate(0,-290.64998)">
    <path
       id="path341"
       style="fill:#ffffff;stroke-width:2.99443;stroke-linecap:round;stroke-linejoin:round;stroke-miterlimit:5.8"
       d="M 3.2246094 290.91508 A 2.9104166 2.9104166 0 0 0 1.6200562 291.36467 A 2.9104166 2.9104166 0 0 0 0.62476807 295.22696 A 2.9104166 2.9104166 0 0 0 4.4193685 296.45583 A 2.9104166 2.9104166 0 0 0 5.8771606 292.74339 L 5.5360962 292.12276 A 2.9104166 2.9104166 0 0 0 3.2246094 290.91508 z M 1.9027262 292.0995 C 2.1358941 292.0995 2.291333 292.25481 2.291333 292.46227 C 2.291333 292.66974 2.1360644 292.82504 1.876888 292.82504 C 1.6437203 292.82504 1.4882812 292.66974 1.4882812 292.46227 C 1.4882812 292.25481 1.6435503 292.0995 1.9027262 292.0995 z M 1.5089518 293.21261 L 2.2722127 293.21261 L 2.2722127 295.3298 L 1.5089518 295.3298 L 1.5089518 293.21261 z M 2.9016317 293.21261 L 3.6643758 293.21261 L 3.6643758 293.50872 C 3.7626637 293.33635 3.9596769 293.21261 4.3289347 293.21261 C 4.6981927 293.21261 4.9940104 293.50885 4.9940104 294.17328 L 4.9940104 295.3298 L 4.2555542 295.3298 L 4.2555542 294.17328 C 4.2555542 293.85331 4.0580439 293.77899 3.9842529 293.77899 C 3.9104623 293.77899 3.6643758 293.8288 3.6643758 294.17328 L 3.6643758 295.3298 L 2.9016317 295.3298 L 2.9016317 293.21261 z " />
  </g>
</svg>
